<mxfile host="app.diagrams.net" modified="2024-04-20T13:30:49.316Z" agent="Mozilla/5.0 (Windows NT 10.0; Win64; x64) AppleWebKit/537.36 (KHTML, like Gecko) Chrome/121.0.0.0 Safari/537.36 OPR/107.0.0.0" etag="RvmDaHY-x61owX0ReHJ9" version="24.2.7" type="github">
  <diagram name="PÃ¡gina-1" id="vmGxoASPL20qMbRXf4vi">
    <mxGraphModel dx="1393" dy="720" grid="1" gridSize="10" guides="1" tooltips="1" connect="1" arrows="1" fold="1" page="1" pageScale="1" pageWidth="827" pageHeight="1169" background="none" math="0" shadow="0">
      <root>
        <mxCell id="0" />
        <mxCell id="1" parent="0" />
        <mxCell id="JPGvD4FDvoYm9Tbg_UIk-2" value="" style="rounded=0;whiteSpace=wrap;html=1;rotation=90;fillColor=#000000;" parent="1" vertex="1">
          <mxGeometry x="-85" y="165" width="640" height="390" as="geometry" />
        </mxCell>
        <mxCell id="JPGvD4FDvoYm9Tbg_UIk-3" value="" style="rounded=0;whiteSpace=wrap;html=1;" parent="1" vertex="1">
          <mxGeometry x="40" y="30" width="390" height="40" as="geometry" />
        </mxCell>
        <mxCell id="JPGvD4FDvoYm9Tbg_UIk-5" value="" style="rounded=0;whiteSpace=wrap;html=1;" parent="1" vertex="1">
          <mxGeometry x="40" y="270" width="390" height="200" as="geometry" />
        </mxCell>
        <mxCell id="JPGvD4FDvoYm9Tbg_UIk-6" value="" style="rounded=0;whiteSpace=wrap;html=1;" parent="1" vertex="1">
          <mxGeometry x="40" y="640" width="390" height="40" as="geometry" />
        </mxCell>
        <mxCell id="JPGvD4FDvoYm9Tbg_UIk-8" value="" style="ellipse;whiteSpace=wrap;html=1;strokeWidth=2;fillWeight=2;hachureGap=8;fillColor=#990000;fillStyle=dots;sketch=1;" parent="1" vertex="1">
          <mxGeometry x="80" y="305" width="100" height="130" as="geometry" />
        </mxCell>
        <mxCell id="JPGvD4FDvoYm9Tbg_UIk-9" value="&lt;h1 style=&quot;margin-top: 0px; font-size: 10px;&quot;&gt;Heading&lt;/h1&gt;&lt;p style=&quot;font-size: 10px;&quot;&gt;&lt;span style=&quot;font-size: 10px;&quot;&gt;Lorem ipsum dolor sit amet, consectetur adipisicing elit, sed do eiusmod tempor i&lt;/span&gt;&lt;font style=&quot;font-size: 10px;&quot;&gt;n&lt;/font&gt;&lt;span style=&quot;font-size: 10px;&quot;&gt;cididunt ut labore et dolore magna aliqua.&lt;/span&gt;&lt;/p&gt;" style="text;html=1;whiteSpace=wrap;overflow=hidden;rounded=0;fontSize=10;" parent="1" vertex="1">
          <mxGeometry x="210" y="312.5" width="180" height="95" as="geometry" />
        </mxCell>
        <mxCell id="JPGvD4FDvoYm9Tbg_UIk-10" value="" style="rounded=1;whiteSpace=wrap;html=1;strokeWidth=2;fillWeight=4;hachureGap=8;hachureAngle=45;fillColor=#1ba1e2;sketch=1;" parent="1" vertex="1">
          <mxGeometry x="220" y="415" width="40" height="20" as="geometry" />
        </mxCell>
        <mxCell id="JPGvD4FDvoYm9Tbg_UIk-11" value="" style="ellipse;whiteSpace=wrap;html=1;strokeWidth=2;fillWeight=2;hachureGap=8;fillColor=#990000;fillStyle=dots;sketch=1;strokeColor=#FFFFFF;" parent="1" vertex="1">
          <mxGeometry x="310" y="90" width="70" height="140" as="geometry" />
        </mxCell>
        <mxCell id="JPGvD4FDvoYm9Tbg_UIk-12" value="&lt;h1 style=&quot;margin-top: 0px; font-size: 9px;&quot;&gt;Heading&lt;/h1&gt;&lt;p style=&quot;font-size: 9px;&quot;&gt;Lorem ipsum dolor sit amet, consectetur adipisicing elit, sed do eiusmod tempor incididunt ut labore et dolore magna aliqua.&lt;/p&gt;" style="text;html=1;whiteSpace=wrap;overflow=hidden;rounded=0;strokeColor=none;fillColor=none;fontColor=#FFFFFF;fontSize=9;" parent="1" vertex="1">
          <mxGeometry x="60" y="110" width="180" height="120" as="geometry" />
        </mxCell>
        <mxCell id="JPGvD4FDvoYm9Tbg_UIk-13" value="Title" style="text;strokeColor=none;fillColor=none;html=1;fontSize=24;fontStyle=1;verticalAlign=middle;align=center;" parent="1" vertex="1">
          <mxGeometry x="50" y="35" width="80" height="30" as="geometry" />
        </mxCell>
        <mxCell id="JPGvD4FDvoYm9Tbg_UIk-14" value="" style="rounded=1;whiteSpace=wrap;html=1;strokeWidth=2;fillWeight=4;hachureGap=8;hachureAngle=45;fillColor=#1ba1e2;sketch=1;" parent="1" vertex="1">
          <mxGeometry x="140" y="40" width="50" height="20" as="geometry" />
        </mxCell>
        <mxCell id="JPGvD4FDvoYm9Tbg_UIk-15" value="" style="rounded=1;whiteSpace=wrap;html=1;strokeWidth=2;fillWeight=4;hachureGap=8;hachureAngle=45;fillColor=#1ba1e2;sketch=1;" parent="1" vertex="1">
          <mxGeometry x="205" y="40" width="60" height="20" as="geometry" />
        </mxCell>
        <mxCell id="JPGvD4FDvoYm9Tbg_UIk-16" value="" style="rounded=1;whiteSpace=wrap;html=1;strokeWidth=2;fillWeight=4;hachureGap=8;hachureAngle=45;fillColor=#1ba1e2;sketch=1;" parent="1" vertex="1">
          <mxGeometry x="280" y="40" width="50" height="20" as="geometry" />
        </mxCell>
        <mxCell id="JPGvD4FDvoYm9Tbg_UIk-17" value="" style="rounded=1;whiteSpace=wrap;html=1;strokeWidth=2;fillWeight=4;hachureGap=8;hachureAngle=45;fillColor=#fad7ac;sketch=1;strokeColor=#b46504;" parent="1" vertex="1">
          <mxGeometry x="354" y="40" width="60" height="20" as="geometry" />
        </mxCell>
        <mxCell id="JPGvD4FDvoYm9Tbg_UIk-18" value="" style="ellipse;whiteSpace=wrap;html=1;strokeWidth=2;fillWeight=2;hachureGap=8;fillColor=#990000;fillStyle=dots;sketch=1;" parent="1" vertex="1">
          <mxGeometry x="227.5" y="651.25" width="25" height="20" as="geometry" />
        </mxCell>
        <mxCell id="JPGvD4FDvoYm9Tbg_UIk-19" value="" style="ellipse;whiteSpace=wrap;html=1;strokeWidth=2;fillWeight=2;hachureGap=8;fillColor=#990000;fillStyle=dots;sketch=1;" parent="1" vertex="1">
          <mxGeometry x="190" y="651.25" width="20" height="18.75" as="geometry" />
        </mxCell>
        <mxCell id="JPGvD4FDvoYm9Tbg_UIk-20" value="" style="ellipse;whiteSpace=wrap;html=1;strokeWidth=2;fillWeight=2;hachureGap=8;fillColor=#990000;fillStyle=dots;sketch=1;" parent="1" vertex="1">
          <mxGeometry x="270" y="647.5" width="20" height="20" as="geometry" />
        </mxCell>
        <mxCell id="JPGvD4FDvoYm9Tbg_UIk-21" style="edgeStyle=orthogonalEdgeStyle;rounded=0;orthogonalLoop=1;jettySize=auto;html=1;exitX=0;exitY=0;exitDx=0;exitDy=0;entryX=1;entryY=0.5;entryDx=0;entryDy=0;" parent="1" source="JPGvD4FDvoYm9Tbg_UIk-18" target="JPGvD4FDvoYm9Tbg_UIk-18" edge="1">
          <mxGeometry relative="1" as="geometry">
            <Array as="points">
              <mxPoint x="239" y="659" />
            </Array>
          </mxGeometry>
        </mxCell>
        <mxCell id="JPGvD4FDvoYm9Tbg_UIk-22" style="edgeStyle=orthogonalEdgeStyle;rounded=0;orthogonalLoop=1;jettySize=auto;html=1;exitX=1;exitY=1;exitDx=0;exitDy=0;entryX=0.5;entryY=1;entryDx=0;entryDy=0;" parent="1" source="JPGvD4FDvoYm9Tbg_UIk-18" target="JPGvD4FDvoYm9Tbg_UIk-18" edge="1">
          <mxGeometry relative="1" as="geometry" />
        </mxCell>
        <mxCell id="JPGvD4FDvoYm9Tbg_UIk-23" value="Object" style="html=1;whiteSpace=wrap;" parent="1" vertex="1">
          <mxGeometry x="140" y="500" width="190" height="20" as="geometry" />
        </mxCell>
        <mxCell id="JPGvD4FDvoYm9Tbg_UIk-24" value="Object" style="html=1;whiteSpace=wrap;" parent="1" vertex="1">
          <mxGeometry x="140" y="530" width="190" height="20" as="geometry" />
        </mxCell>
        <mxCell id="JPGvD4FDvoYm9Tbg_UIk-25" value="Object" style="html=1;whiteSpace=wrap;" parent="1" vertex="1">
          <mxGeometry x="137.5" y="562" width="195" height="45" as="geometry" />
        </mxCell>
        <mxCell id="JPGvD4FDvoYm9Tbg_UIk-27" value="" style="rounded=1;whiteSpace=wrap;html=1;strokeWidth=2;fillWeight=4;hachureGap=8;hachureAngle=45;fillColor=#1ba1e2;sketch=1;" parent="1" vertex="1">
          <mxGeometry x="223.75" y="610" width="41.25" height="20" as="geometry" />
        </mxCell>
        <mxCell id="JPGvD4FDvoYm9Tbg_UIk-28" value="" style="rounded=1;whiteSpace=wrap;html=1;strokeWidth=2;fillWeight=4;hachureGap=8;hachureAngle=45;fillColor=#1ba1e2;sketch=1;" parent="1" vertex="1">
          <mxGeometry x="60" y="190" width="40" height="20" as="geometry" />
        </mxCell>
        <mxCell id="JPGvD4FDvoYm9Tbg_UIk-29" value="" style="rounded=1;whiteSpace=wrap;html=1;strokeWidth=2;fillWeight=4;hachureGap=8;hachureAngle=45;fillColor=#fad9d5;sketch=1;strokeColor=#ae4132;" parent="1" vertex="1">
          <mxGeometry x="120" y="190" width="40" height="20" as="geometry" />
        </mxCell>
      </root>
    </mxGraphModel>
  </diagram>
</mxfile>
